<?xml version="1.0" encoding="UTF-8"?>
<svg width="21566px" height="21566px" viewBox="0 0 21566 21566" version="1.1" xmlns="http://www.w3.org/2000/svg" xmlns:xlink="http://www.w3.org/1999/xlink">
    <!-- Generator: Sketch 44.1 (41455) - http://www.bohemiancoding.com/sketch -->
    <title>Artboard</title>
    <desc>Created with Sketch.</desc>
    <defs></defs>
    <g id="Page-1" stroke="none" stroke-width="1" fill="none" fill-rule="evenodd">
        <g id="Artboard" fill-rule="nonzero">
            <g id="tag" transform="translate(11393.000000, 1792.000000)">
                <path d="M8226.2922,4730.87624 L5148.79039,1620.73146 C5129.18075,1601.12207 4907.03775,1437.77688 4671.80506,1437.77688 C4031.47246,1444.31335 2737.75076,1437.77688 2058.21548,1437.77688 C1744.57743,1437.77688 1633.50593,1542.32709 1633.50593,1869.01747 L1633.50593,4469.51731 C1633.50593,4672.06467 1796.85321,4926.88715 1816.46284,4946.49653 L4926.63079,8023.9756 C5109.58771,8206.93017 5403.61612,8206.93017 5586.55644,8023.9756 L8226.2922,5384.27358 C8409.24911,5207.85547 8409.24911,4913.83081 8226.2922,4730.87624 Z M3038.29913,3267.27284 C2803.08304,3267.27284 2613.58958,3077.78181 2613.58958,2842.56872 C2613.58958,2607.35563 2803.08304,2417.8646 3038.29913,2417.8646 C3273.51523,2417.8646 3463.00868,2607.35563 3463.00868,2842.56872 C3463.00868,3077.78181 3273.53182,3267.27284 3038.29913,3267.27284 Z" id="Shape" fill="#EFC75E"></path>
                <path d="M3038.29913,2221.8371 C2698.53149,2221.8371 2417.57617,2502.78883 2417.57617,2842.55213 C2417.57617,3182.31543 2698.53149,3463.26716 3038.29913,3463.26716 C3378.06677,3463.26716 3659.0221,3182.31543 3659.0221,2842.55213 C3659.0221,2502.78883 3384.60332,2221.8371 3038.29913,2221.8371 Z M3038.29913,3136.59337 C2874.95186,3136.59337 2744.27072,3005.91391 2744.27072,2842.56872 C2744.27072,2679.22353 2874.95186,2548.54406 3038.29913,2548.54406 C3201.64641,2548.54406 3332.32755,2679.22353 3332.32755,2842.56872 C3332.34414,3005.91391 3201.663,3136.59337 3038.29913,3136.59337 Z" id="Shape" fill="#D07C40"></path>
                <path d="M3227.79259,1437.79347 C3070.98186,764.803341 2476.38849,261.694856 1770.70702,261.694856 C934.361013,261.694856 261.362276,947.757914 261.362276,1797.16616 C261.362276,2646.5744 934.361013,3332.63746 1764.18707,3332.63746 C2326.1143,3332.63746 2816.15613,3019.00342 3070.98186,2548.56065 C3162.46032,2561.63358 3247.40223,2613.89209 3293.14145,2692.31305 C2986.03995,3228.08725 2417.59276,3593.99639 1764.18707,3593.99639 C790.606784,3593.96321 0,2790.29361 0,1797.14957 C0,804.005522 790.606784,0.335921216 1764.17048,0.335921216 C2620.12613,0.335921216 3332.32755,614.531078 3495.67482,1437.79347 C3495.67482,1437.79347 3227.79259,1437.79347 3227.79259,1437.79347 Z" id="Shape" fill="#E4E7E7"></path>
                <path d="M5292.52803,4574.06752 C5560.42685,4574.06752 5782.56985,4351.91076 5782.56985,4084.03196 C5782.56985,3816.15315 5560.41026,3593.99639 5292.52803,3593.99639 C5024.6292,3593.99639 4802.4862,3816.15315 4802.4862,4084.03196 C4802.4862,4351.91076 5024.64579,4574.06752 5292.52803,4574.06752 Z M5292.52803,3855.32215 C5416.67262,3855.32215 5521.22417,3959.87236 5521.22417,4084.01537 C5521.22417,4208.15837 5416.67262,4312.70858 5292.52803,4312.70858 C5168.38343,4312.70858 5063.83189,4208.15837 5063.83189,4084.01537 C5063.84848,3953.35249 5168.38343,3855.32215 5292.52803,3855.32215 Z M5292.52803,5619.48667 C5024.6292,5619.48667 4802.4862,5841.64342 4802.4862,6109.52223 C4802.4862,6377.40103 5024.64579,6599.55779 5292.52803,6599.55779 C5560.42685,6599.55779 5782.56985,6377.40103 5782.56985,6109.52223 C5782.58644,5835.10696 5560.42685,5619.48667 5292.52803,5619.48667 Z M5292.52803,6338.21544 C5168.38343,6338.21544 5063.83189,6233.66523 5063.83189,6109.52223 C5063.83189,5985.37922 5168.38343,5880.82901 5292.52803,5880.82901 C5416.67262,5880.82901 5521.22417,5985.37922 5521.22417,6109.52223 C5521.22417,6233.66523 5416.67262,6338.21544 5292.52803,6338.21544 Z M6625.469,4966.10592 L3953.0671,4966.10592 C3881.19828,4966.10592 3822.38596,5024.91749 3822.38596,5096.78539 C3822.38596,5168.65329 3881.19828,5227.46485 3953.0671,5227.46485 L6625.469,5227.46485 C6697.33782,5227.46485 6756.15014,5168.65329 6756.15014,5096.78539 C6762.68668,5024.88431 6703.87436,4966.10592 6625.469,4966.10592 Z" id="Shape" fill="#D07C40"></path>
            </g>
            <g id="rocket" transform="translate(5017.221274, 9954.221274) rotate(-45.000000) translate(-5017.221274, -9954.221274) translate(-429.778726, 4507.221274)">
                <path d="M3388.73411,7678.68359 C3865.49844,8155.44793 3865.49844,8938.72061 3388.73411,9415.50656 C2911.96977,9892.27089 1507.1849,10513.7831 1030.42057,10037.0187 C553.65623,9560.25441 1175.14681,8155.46954 1651.93276,7678.70521 C2128.69709,7201.91926 2903.45265,7201.91926 3388.73411,7678.68359 Z" id="Shape" fill="#EFC75E"></path>
                <path d="M1966.93661,7448.80774 L1966.93661,7499.88886 C1966.93661,8385.32378 2690.61104,9108.99821 3576.04596,9108.99821 L3610.09284,9108.99821 C3848.48581,8649.24651 3771.85332,8070.31993 3380.21698,7678.68359 C3005.61489,7295.56437 2426.68831,7218.93188 1966.93661,7448.80774 Z" id="Shape" fill="#DEB957"></path>
                <path d="M5891.79551,5005.34458 C7347.6615,6461.21058 7637.11398,8530.05002 6257.88048,9909.28352 L5602.32141,10564.8426 C4223.08791,11944.0761 5176.63819,8632.21226 3720.7722,7176.34627 C2264.90621,5720.48028 -1055.47474,6682.54769 332.275883,5294.79706 L987.83495,4639.238 C2367.09007,3260.02611 4435.92951,3549.50021 5891.79551,5005.34458 L5891.79551,5005.34458 Z" id="Shape" fill="#F26C4F"></path>
                <path d="M10710.6064,186.533641 C11153.3239,629.251101 10957.5165,3438.79923 8241.61354,6163.21936 C6470.7437,7925.57207 5355.43293,8547.08427 5355.43293,8547.08427 C4172.00679,9347.39119 3601.59733,8802.48987 2852.37153,8053.28568 C2103.14572,7304.0815 1549.77052,6733.65043 2358.57295,5550.22429 C2358.57295,5550.22429 2988.60226,4426.39639 4750.95498,2655.52655 C7466.83637,-60.3548413 10267.889,-264.679325 10710.6064,186.533641 L10710.6064,186.533641 Z" id="Shape" fill="#F4F0D3"></path>
                <path d="M5823.68014,8163.96505 C4589.17288,8989.80173 3993.21205,8427.88778 3218.4565,7653.13222 C2435.18382,6869.85954 1864.75275,6282.41584 2707.62367,5047.90858 L2835.33728,4843.5841 C2503.29919,5294.81868 2358.57295,5550.22429 2358.57295,5550.22429 C1549.77052,6733.65043 2103.16734,7304.05988 2852.37153,8053.28568 C3601.57571,8802.51149 4172.00679,9338.87407 5355.43293,8547.08427 C5355.43293,8547.08427 5883.27838,8249.09305 6794.26467,7491.37174 C6172.75248,7968.15769 5823.68014,8163.96505 5823.68014,8163.96505 Z" id="Shape" fill="#E8E4C8"></path>
                <path d="M7858.47271,3038.66738 C8275.6388,3455.83347 8275.6388,4128.42679 7858.47271,4545.61449 C7441.30662,4962.78059 6768.7133,4962.78059 6351.5256,4545.61449 C5934.3595,4128.4484 5934.3595,3455.85509 6351.5256,3038.66738 C6768.69169,2621.47967 7449.82374,2621.47967 7858.47271,3038.66738 Z" id="Shape" fill="#8BA0AB"></path>
                <path d="M5397.99692,5677.9379 C5610.83853,5890.7795 5202.18956,6648.50081 4163.48966,7687.20071 C3124.78976,8725.90062 2494.78206,9006.83597 2281.94046,8785.47724 C2069.09885,8572.63563 2341.5387,7942.60632 3380.21698,6903.92804 C4427.41239,5865.24975 5176.63819,5456.57917 5397.99692,5677.9379 Z" id="Shape" fill="#F26C4F"></path>
                <path d="M7109.26852,2979.06914 C7322.11013,2979.06914 7526.43461,3064.19713 7679.69959,3217.46211 C7832.94296,3370.70548 7918.09257,3575.05158 7918.09257,3787.89318 C7918.09257,4000.73479 7832.96457,4205.05928 7679.69959,4358.32426 C7526.45623,4511.56762 7322.11013,4596.71723 7109.26852,4596.71723 C6896.42691,4596.71723 6692.10243,4511.58924 6538.83745,4358.32426 C6385.59409,4205.08089 6300.44447,4000.73479 6300.44447,3787.89318 C6300.44447,3575.05158 6385.57247,3370.72709 6538.83745,3217.46211 C6692.08081,3064.19713 6896.42691,2979.06914 7109.26852,2979.06914 L7109.26852,2979.06914 Z M7109.26852,2723.66353 C6836.82867,2723.66353 6564.38882,2825.82577 6360.06434,3038.66738 C5942.89824,3455.83347 5942.89824,4128.42679 6360.06434,4545.61449 C6564.38882,4749.93898 6836.82867,4860.61834 7109.26852,4860.61834 C7381.70837,4860.61834 7654.14822,4758.4561 7858.47271,4545.61449 C8275.6388,4128.4484 8275.6388,3455.85509 7858.47271,3038.66738 C7654.14822,2825.82577 7381.70837,2723.66353 7109.26852,2723.66353 Z" id="Shape" fill="#324D5B"></path>
                <path d="M8105.38281,399.396865 C8182.0153,969.827937 8488.50202,1574.30588 8990.81773,2076.62159 C9433.53519,2510.82192 9944.36802,2800.29602 10446.6837,2919.49251 C11008.5761,1523.20314 10966.0121,450.477986 10710.6064,186.533641 C10463.6963,-68.8719643 9442.05231,-111.435962 8105.38281,399.396865 Z" id="Shape" fill="#F26C4F"></path>
            </g>
            <g id="store" transform="translate(8005.000000, 8627.000000)">
                <path d="M1100.87704,643.131585 L10641.7182,643.131585 L10641.7182,9816.83945 L1100.87704,9816.83945 C1100.87704,9816.83945 1100.87704,643.131585 1100.87704,643.131585 Z" id="Shape" fill="#E4E7E7"></path>
                <path d="M1100.87704,3110.86892 L10641.7182,3110.86892 L10641.7182,3578.72462 L1100.87704,3578.72462 C1100.87704,3578.72462 1100.87704,3110.86892 1100.87704,3110.86892 Z" id="Shape" fill="#CDCFCF"></path>
                <path d="M11742.572,2202.66612 L10806.8428,1285.28601 L926.551711,1285.28601 L0,2202.66612 L0,2817.31195 C0,2982.43338 137.615453,3120.04622 311.917491,3120.04622 L11439.832,3120.04622 C11614.134,3120.04622 11751.7494,2982.43338 11751.7494,2817.31195 L11742.572,2202.66612 Z" id="Shape" fill="#E4E7E7"></path>
                <polygon id="Shape" fill="#CDCFCF" points="11715.0629 2175.15752 10806.8428 1285.3093 926.551711 1285.3093 27.5324079 2175.15752"></polygon>
                <path d="M1724.68873,0.977158986 L10008.7058,0.977158986 L10641.6949,643.131585 L1100.85375,643.131585 C1100.87704,643.131585 1724.68873,0.977158986 1724.68873,0.977158986 Z" id="Shape" fill="#CCD0D2"></path>
                <path d="M1743.04367,9266.43468 L3853.04635,9266.43468 L3853.04635,3120.04622 L1743.04367,3120.04622 L1743.04367,9266.43468 Z M4495.21298,9816.83945 L7247.38229,9816.83945 L7247.38229,3120.04622 L4495.21298,3120.04622 L4495.21298,9816.83945 Z M7889.54892,3120.04622 L7889.54892,9266.43468 L9999.5516,9266.43468 L9999.5516,3120.04622 L7889.54892,3120.04622 Z M1743.04367,9266.43468 L3853.04635,9266.43468 L3853.04635,3120.04622 L1743.04367,3120.04622 L1743.04367,9266.43468 Z M4495.21298,9816.83945 L7247.38229,9816.83945 L7247.38229,3120.04622 L4495.21298,3120.04622 L4495.21298,9816.83945 Z M7889.54892,3120.04622 L7889.54892,9266.43468 L9999.5516,9266.43468 L9999.5516,3120.04622 L7889.54892,3120.04622 Z" id="Shape" fill="#2EA9D3"></path>
                <path d="M5348.36823,4587.83109 L6403.35792,4587.83109 C6568.48249,4587.83109 6706.09795,4725.44393 6706.09795,4899.74266 L6706.09795,5367.59836 C6706.09795,5541.89708 6568.48249,5679.50992 6403.35792,5679.50992 L5348.36823,5679.50992 C5183.24366,5679.50992 5045.62821,5541.89708 5045.62821,5367.59836 L5045.62821,4899.74266 C5045.62821,4725.44393 5183.24366,4587.83109 5348.36823,4587.83109 Z" id="Shape" fill="#3DB39E"></path>
                <path d="M6394.20375,4863.05677 C6403.38122,4863.05677 6421.73616,4881.41136 6421.73616,4899.74266 L6421.73616,5367.59836 C6421.73616,5395.13024 6403.38122,5404.28424 6394.20375,5404.28424 L5348.39152,5404.28424 C5339.21405,5404.28424 5320.85911,5385.92965 5320.85911,5367.59836 L5320.85911,4899.74266 C5320.85911,4872.21077 5339.21405,4863.05677 5348.39152,4863.05677 L6394.20375,4863.05677 L6394.20375,4863.05677 Z M6394.20375,4587.83109 L5348.39152,4587.83109 C5183.26695,4587.83109 5045.6515,4725.44393 5045.6515,4899.74266 L5045.6515,5367.59836 C5045.6515,5541.89708 5183.26695,5679.50992 5348.39152,5679.50992 L6403.38122,5679.50992 C6568.50579,5679.50992 6706.12124,5541.89708 6706.12124,5367.59836 L6706.12124,4899.74266 C6696.94377,4725.44393 6559.32832,4587.83109 6394.20375,4587.83109 Z" id="Shape" fill="#E4E7E7"></path>
                <path d="M3853.02306,6972.99607 L3027.37692,6972.99607 L3027.37692,5963.8896 L1743.04367,5963.8896 L1743.04367,9266.43468 L3853.04635,9266.43468 L3853.04635,6972.99607 L3853.02306,6972.99607 Z M4495.21298,6972.99607 L5596.09002,6972.99607 L5596.09002,9816.83945 L4495.21298,9816.83945 L4495.21298,6972.99607 L4495.21298,6972.99607 Z M7889.54892,6055.63926 L9999.5516,6055.63926 L9999.5516,9266.43468 L7889.54892,9266.43468 L7889.54892,6055.63926 Z M6513.46426,7615.1505 L7247.38229,7615.1505 L7247.38229,9816.83945 L6513.46426,9816.83945 L6513.46426,7615.1505 Z" id="Shape" fill="#2998BD"></path>
                <path d="M9219.74623,8734.36121 C9366.53915,8734.36121 9504.13131,8780.22439 9623.39183,8862.79675 C9705.96576,8358.23187 10146.2979,7982.12583 10678.3815,7982.12583 C11265.5066,7982.12583 11751.7262,8449.98153 11751.7262,9037.09548 C11751.7262,9624.20943 11274.6841,10092.0651 10678.3815,10092.0651 L9228.9004,10092.0651 C8852.76392,10092.0651 8540.86972,9789.33086 8540.86972,9413.20152 C8531.71555,9037.09548 8843.63304,8734.36121 9219.74623,8734.36121 Z M2522.82575,8734.36121 C2376.03283,8734.36121 2238.44067,8780.22439 2119.18015,8862.79675 C2036.60622,8358.23187 1596.27404,7982.12583 1064.19046,7982.12583 C477.042059,7982.10254 0,8459.13553 0,9037.09548 C0,9624.20943 477.042059,10092.0651 1073.34463,10092.0651 L2522.82575,10092.0651 C2898.96223,10092.0651 3210.85643,9789.33086 3210.85643,9413.20152 C3210.85643,9037.09548 2898.93894,8734.36121 2522.82575,8734.36121 Z" id="Shape" fill="#3DB39E"></path>
                <path d="M2522.82575,9816.83945 L1073.34463,9816.83945 C532.083582,9816.83945 82.5739307,9413.20152 18.3549386,8899.45935 C0,8945.34582 0,8991.209 0,9037.09548 C0,9624.20943 477.042059,10092.0651 1073.34463,10092.0651 L2522.82575,10092.0651 C2898.96223,10092.0651 3210.85643,9789.33086 3210.85643,9413.20152 C3210.85643,9367.33834 3201.67896,9321.47516 3192.50149,9275.58868 C3128.30579,9587.50025 2853.07489,9816.83945 2522.82575,9816.83945 Z M10669.2273,9816.83945 L9219.74623,9816.83945 C8889.49709,9816.83945 8614.26618,9587.50025 8550.04719,9275.58868 C8540.86972,9321.45187 8531.69225,9367.31505 8531.69225,9413.20152 C8531.69225,9789.33086 8843.60974,10092.0651 9219.72293,10092.0651 L10669.2041,10092.0651 C11256.3292,10092.0651 11742.5487,9624.20943 11742.5487,9037.09548 C11742.5487,8991.2323 11742.5487,8945.36912 11733.3712,8899.48264 C11659.998,9413.20152 11219.6659,9816.83945 10669.2273,9816.83945 Z" id="Shape" fill="#37A18E"></path>
                <path d="M7889.54892,3120.04622 L9999.5516,3120.04622 L9999.5516,3569.54733 L7889.54892,3569.54733 L7889.54892,3120.04622 Z M1743.04367,3120.04622 L3853.04635,3120.04622 L3853.04635,3569.54733 L1743.04367,3569.54733 L1743.04367,3120.04622 Z M4495.21298,3120.04622 L7247.38229,3120.04622 L7247.38229,3569.54733 L4495.21298,3569.54733 L4495.21298,3120.04622 Z" id="Shape" fill="#2998BD"></path>
                <path d="M10806.8428,1285.3093 L10274.7592,1285.3093 L11100.4054,2202.68941 L11100.4054,3120.06951 L11430.6545,3120.06951 C11604.9565,3120.06951 11742.572,2982.45667 11742.572,2817.33524 L11742.572,2202.68941 L11733.3945,2193.51211 C11733.3945,2193.48882 10806.8428,1285.3093 10806.8428,1285.3093 Z M3109.95086,2175.15752 L3476.90987,1285.3093 L2944.82629,1285.3093 L2476.9617,2175.15752 L2476.9617,3120.04622 L3109.95086,3120.04622 L3109.95086,2175.15752 Z M1192.60515,3120.04622 L1825.59431,3120.04622 L1825.59431,2202.66612 L2476.9384,1285.28601 L1862.30418,1285.28601 L1192.60515,2202.66612 L1192.60515,3120.04622 Z M5596.06673,2193.48882 L5687.79484,1285.28601 L5045.62821,1285.28601 L4963.05428,2184.31153 L4963.05428,3120.02293 L5596.04344,3120.02293 L5596.06673,2193.48882 L5596.06673,2193.48882 Z M4394.28411,3110.86892 L4394.28411,2175.15752 L4586.94109,1285.3093 L3990.63851,1285.3093 L3761.29495,2175.15752 L3761.29495,3110.86892 L4394.28411,3110.86892 Z M9265.63357,3120.04622 L9265.63357,2175.15752 L8797.76898,1294.4866 L8265.6854,1294.4866 L8623.46695,2175.15752 L8623.46695,3120.04622 L9265.63357,3120.04622 Z M10549.9668,3120.04622 L10549.9668,2202.66612 L9880.26779,1285.28601 L9265.61028,1285.28601 L9916.95438,2202.66612 L9916.95438,3120.04622 L10549.9668,3120.04622 Z M311.917491,3120.04622 L642.166628,3120.04622 L642.166628,2202.66612 L1467.81276,1285.28601 L926.551711,1285.28601 L0,2202.66612 L0,2808.13465 C0,2982.43338 137.615453,3120.04622 311.917491,3120.04622 Z M6779.49441,3120.04622 L6779.49441,2193.51211 L6696.92048,1285.3093 L6054.75385,1285.3093 L6146.48196,2193.51211 L6146.48196,3120.04622 L6779.49441,3120.04622 Z M7348.28787,2175.15752 L7348.28787,3110.86892 L7981.27703,3110.86892 L7981.27703,2175.15752 L7751.93347,1285.3093 L7155.63089,1285.3093 L7348.28787,2175.15752 Z" id="Shape" fill="#E2574C"></path>
                <path d="M8797.74569,1294.46331 L8265.66211,1294.46331 L8623.44365,2175.13423 L9256.43281,2175.13423 L8797.74569,1294.46331 Z M6696.94377,1285.3093 L6054.77714,1285.3093 L6146.50525,2175.15752 L6779.49441,2175.15752 L6696.94377,1285.3093 Z M10806.8428,1285.3093 L10274.7592,1285.3093 L11072.8962,2175.15752 L11715.0629,2175.15752 L10806.8428,1285.3093 Z M9880.26779,1285.3093 L9265.61028,1285.3093 L9889.44526,2175.15752 L10522.4344,2175.15752 L9880.26779,1285.3093 Z M7742.756,1285.3093 L7155.63089,1285.3093 L7348.28787,2175.15752 L7981.27703,2175.15752 L7742.756,1285.3093 Z M3761.29495,2175.15752 L4394.28411,2175.15752 L4586.94109,1285.3093 L3990.63851,1285.3093 L3761.29495,2175.15752 Z M2476.9384,1285.3093 L1862.30418,1285.3093 L1210.96009,2175.15752 L1843.94925,2175.15752 L2476.9384,1285.3093 Z M4963.07757,2175.15752 L5596.06673,2175.15752 L5687.79484,1285.3093 L5045.62821,1285.3093 L4963.07757,2175.15752 Z M27.5324079,2175.15752 L669.699036,2175.15752 L1467.83606,1285.3093 L926.551711,1285.3093 L27.5324079,2175.15752 Z M2476.9384,2175.15752 L3109.92756,2175.15752 L3476.88658,1285.3093 L2944.80299,1285.3093 L2476.9384,2175.15752 Z" id="Shape" fill="#CB4E44"></path>
            </g>
        </g>
    </g>
</svg>